<?xml version="1.0" encoding="UTF-8"?>
<svg id="Camada_2" data-name="Camada 2" xmlns="http://www.w3.org/2000/svg" viewBox="0 0 266.18 151.54">
  <defs>
    <style>
      .cls-1 {
        opacity: .17;
      }

      .cls-2 {
        fill: #f3a18b;
      }

      .cls-3 {
        fill: #92b6c6;
      }

      .cls-4 {
        fill: #be5484;
      }
    </style>
  </defs>
  <g id="vetor">
    <path class="cls-3" d="M56.77,67.34c1.08-.05,2.1-.08,3.06-.09,10.01-.07,15.03,2.53,15.07,7.81v.86c.04,4.48-2.63,6.95-8,7.43l-3.2.02c-.53.07-.79.34-.79.8.01,1.72,0,12.57-.04,32.55-1.37,4.3-4.03,6.47-7.98,6.5-5.37.04-8.09-4.1-8.15-12.41-.12-4.13-.19-7.86-.22-11.19-.04-6.04.07-10.76.35-14.16-2.68,1.12-4.42,1.69-5.22,1.69h-.83c-4.83-.95-7.26-3.88-7.3-8.79-.04-5.99,7.7-9.66,23.24-11.02Z"/>
    <path class="cls-4" d="M122.01,67.66c5.4-.04,11.5,12.37,18.32,37.24,1.2,3.46,1.8,6.42,1.82,8.87.01,1.63-.22,3.04-.69,4.24-1.26,3.04-3.47,4.57-6.61,4.59-4.45.03-7.3-2.39-8.52-7.26-1.23-4.87-3.69-12.72-7.37-23.56-5.2,8.44-9.98,12.68-14.34,12.71h-.14c-4.43-.06-8.44-3.43-12.02-10.11l-4.69,18.12c-1.66,9.13-4.96,13.71-9.92,13.74-2.57.02-4.6-1.1-6.09-3.37-.84-1.21-1.26-2.7-1.27-4.47-.01-1.47.26-3.14.82-5,2.86-14.58,5.85-27.04,8.99-37.4,2.01-4.84,5.19-7.27,9.56-7.3,4.2-.03,9.19,4.48,14.98,13.53.69,0,2.44-2.55,5.25-7.65,2.56-4.63,6.08-6.97,10.56-7,.46,0,.92.02,1.38.06Z"/>
    <path class="cls-2" d="M160.44,66.59c1.08-.05,2.1-.08,3.06-.09,10.01-.07,15.03,2.53,15.07,7.81v.86c.04,4.48-2.63,6.95-8,7.43l-3.2.02c-.53.07-.79.34-.79.8.01,1.72,0,12.57-.04,32.55-1.37,4.3-4.03,6.47-7.98,6.5-5.37.04-8.09-4.1-8.15-12.41-.12-4.13-.19-7.86-.22-11.19-.04-6.04.07-10.76.35-14.16-2.68,1.12-4.42,1.69-5.22,1.69h-.83c-4.83-.95-7.26-3.88-7.3-8.79-.04-5.99,7.7-9.66,23.24-11.02Z"/>
    <path class="cls-4" d="M197.28,69.94c14.69-.11,25.99,6.1,33.89,18.63,1.63,3.41,2.46,6.76,2.48,10.04l.02,2.79c.11,14.95-14.82,24.03-44.78,27.26h-.41c-5.9.05-8.87-2.75-8.91-8.37-.02-2.16,1.45-4.58,4.39-7.26-1.14-8.28-1.72-14.57-1.75-18.86l-.05-6.82c-.06-8.61,3.11-14.13,9.52-16.57,2.02-.54,3.89-.82,5.61-.83ZM198.6,86.01l-.78,1.21.03,3.62c.33,11.2,1.18,17.75,2.55,19.65h.38c11.51-2.57,17.25-5.96,17.22-10.18-.05-6.86-5.85-11.63-17.39-14.31h-2Z"/>
    <g>
      <path class="cls-3" d="M102.9,151.38v-15.01h3.16v15.01h-3.16ZM105.51,149.15l.08-3.84,5.08-4.81h3.76l-4.88,4.96-1.64,1.33-2.41,2.37ZM111.01,151.38l-3.68-4.57,1.98-2.45,5.52,7.02h-3.82Z"/>
      <path class="cls-3" d="M127.84,138.98c-.58,0-1.05-.17-1.42-.51s-.55-.76-.55-1.25.18-.92.55-1.25.84-.51,1.42-.51,1.05.16,1.42.48.55.72.55,1.22c0,.53-.18.96-.54,1.3s-.83.52-1.43.52ZM126.26,151.38v-10.88h3.16v10.88h-3.16Z"/>
      <path class="cls-3" d="M147.13,151.54c-1.02,0-1.95-.23-2.77-.7-.82-.46-1.47-1.12-1.95-1.95-.48-.84-.72-1.82-.72-2.95s.24-2.14.72-2.97c.48-.84,1.13-1.48,1.95-1.94.82-.46,1.75-.69,2.77-.69.92,0,1.72.2,2.41.61.69.4,1.22,1.02,1.6,1.84.38.82.57,1.87.57,3.16s-.18,2.32-.55,3.15-.89,1.45-1.57,1.85c-.68.41-1.5.61-2.46.61ZM147.68,148.95c.51,0,.98-.12,1.4-.36.42-.24.75-.59,1-1.04.25-.45.37-.99.37-1.61s-.12-1.17-.37-1.62c-.25-.45-.58-.79-1-1.03-.42-.24-.88-.36-1.4-.36s-1,.12-1.42.36c-.42.24-.75.59-1,1.03-.25.45-.37.98-.37,1.62s.12,1.16.37,1.61c.25.45.58.8,1,1.04.42.24.89.36,1.42.36ZM150.53,151.38v-2.22l.06-3.24-.2-3.22v-6.33h3.16v15.01h-3.01Z"/>
      <path class="cls-3" d="M170.24,151.54c-.93,0-1.82-.11-2.68-.33s-1.53-.5-2.03-.84l1.05-2.27c.5.31,1.09.56,1.77.76.68.2,1.35.29,2.01.29.73,0,1.24-.09,1.55-.26.3-.17.46-.42.46-.73,0-.26-.12-.45-.35-.58-.24-.13-.55-.23-.94-.29-.39-.07-.82-.13-1.29-.2-.46-.07-.93-.16-1.41-.27-.47-.11-.9-.29-1.29-.52-.39-.23-.71-.54-.94-.93-.24-.39-.35-.9-.35-1.52,0-.69.2-1.29.6-1.82.4-.53.97-.94,1.73-1.24.75-.3,1.66-.46,2.71-.46.74,0,1.5.08,2.27.24s1.41.4,1.92.71l-1.05,2.25c-.53-.31-1.06-.52-1.59-.64-.53-.11-1.05-.17-1.55-.17-.7,0-1.21.09-1.54.28s-.49.43-.49.73c0,.27.12.47.35.61.24.13.55.24.94.32.39.08.82.15,1.28.21.46.06.93.15,1.41.27.47.12.9.29,1.29.52.38.22.7.53.94.91.24.38.36.89.36,1.51,0,.67-.2,1.27-.61,1.79-.4.52-.99.93-1.75,1.22-.76.3-1.69.45-2.78.45Z"/>
    </g>
    <g class="cls-1">
      <path class="cls-3" d="M258.95,119.07c9.74-16.76,9.42-38.21.36-55.18-4.51-8.44-11.42-15.59-19.7-20.39s-17.97-7.41-27.6-7.66c-10.66-.28-21.6,2.48-30.64,8.21l10.29,4.19c-3.31-11.31-11.92-20.04-22.74-24.39-10.45-4.2-22.83-2.53-32.24,3.46-5.45,3.47-10.16,8.3-13.11,14.08,4.27.56,8.54,1.12,12.8,1.67-4.22-14.16-14.17-25.98-26.74-33.57-6.03-3.64-12.78-6.37-19.66-7.86-7.71-1.66-15.35-1.79-23.13-.69-14.67,2.06-28.4,9.44-39.21,19.42-11.54,10.65-19.6,24.76-23.53,39.92C-.1,76.48.14,93.69,3.97,109.94c.45,1.92.96,3.83,1.52,5.73,1.04,3.51,4.97,6.07,8.62,4.89,3.56-1.15,6-4.85,4.89-8.62-1.51-5.11-2.63-10.32-3.34-15.6l.25,1.86c-1.13-8.53-1.19-17.16-.07-25.7l-.25,1.86c.9-6.58,2.49-13.06,4.87-19.27.21-.53,1.38-3.06.36-.96.35-.73.65-1.49.99-2.23.68-1.47,1.4-2.91,2.18-4.33,1.44-2.65,3.05-5.2,4.81-7.65.42-.59.87-1.16,1.3-1.74-1.4,1.94-.07.11.25-.29.99-1.22,2.02-2.4,3.09-3.56,1.97-2.13,4.06-4.14,6.27-6.02.55-.47,1.11-.93,1.67-1.38.28-.23.57-.44.85-.67-1.69,1.39-.66.51-.27.22,1.25-.94,2.54-1.83,3.85-2.68,2.41-1.57,4.92-2.99,7.51-4.25.75-.37,1.51-.72,2.28-1.06.46-.2,1.72-.64-.35.14.45-.17.89-.36,1.33-.53,1.45-.56,2.91-1.07,4.39-1.53,3.2-.98,6.46-1.7,9.78-2.16-.62.08-1.24.17-1.86.25,4.99-.66,10.01-.69,15-.03l-1.86-.25c3.98.56,7.89,1.52,11.67,2.88.86.31,1.71.67,2.57.99-2.16-.8-.62-.26-.09-.03s1.04.48,1.56.73c1.81.87,3.57,1.84,5.28,2.89s3.25,2.36,4.94,3.4c-.03-.02-1.44-1.15-.61-.46.18.14.36.29.53.43.35.29.7.58,1.05.88.78.67,1.54,1.35,2.28,2.06,1.43,1.37,2.79,2.82,4.07,4.35.29.35.57.7.86,1.05.53.65-.97-1.28-.47-.61.17.23.34.45.51.68.6.82,1.18,1.66,1.73,2.51,1.17,1.8,2.22,3.68,3.13,5.63.24.5.42,1.07.7,1.55-.01-.02-.71-1.74-.31-.73.12.32.25.63.37.95.4,1.07.76,2.15,1.09,3.25.8,2.69,3.05,4.64,5.82,5.02,2.63.35,5.71-.86,6.98-3.34.54-1.05,1.12-2.07,1.78-3.04.16-.24.33-.48.5-.72.67-.92-.15.11-.35.43.3-.48.75-.93,1.13-1.35.78-.88,1.62-1.71,2.49-2.49.17-.15,1.33-.92,1.35-1.13-.02.18-1.49,1.12-.43.35.24-.17.48-.34.72-.51.97-.67,1.98-1.28,3.02-1.83.52-.28,1.05-.54,1.58-.79.21-.1.43-.19.64-.29-1.89.9-1,.42-.53.24,2.25-.88,4.59-1.47,6.98-1.81l-1.86.25c2.45-.31,4.91-.33,7.37-.02l-1.86-.25c1.37.19,2.73.47,4.06.85.66.19,1.32.41,1.97.64.32.12.64.25.97.37-2.08-.76-.88-.37-.4-.16,1.26.58,2.47,1.24,3.64,1.99.59.37,1.15.77,1.72,1.17,1.09.78-1.35-1.1-.32-.25.27.22.54.44.8.66,1.05.9,2.04,1.87,2.97,2.91.43.48,1.79,2.41.45.45.39.57.82,1.11,1.2,1.69.73,1.11,1.38,2.26,1.95,3.46.12.25.65,1.48.14.27s0,.02.1.29c.27.7.5,1.42.71,2.14,1.23,4.2,6.39,6.65,10.29,4.19,1.45-.92,2.95-1.76,4.5-2.51.31-.15.62-.3.93-.44.5-.23,2.12-.79-.1.02.75-.28,1.48-.59,2.24-.86,3.13-1.1,6.36-1.86,9.64-2.32l-1.86.25c4.55-.6,9.15-.6,13.71,0l-1.86-.25c3.97.54,7.88,1.51,11.63,2.95.31.12,2.02.82.75.29-1.28-.54.33.16.57.27.98.45,1.95.94,2.91,1.46,1.7.93,3.35,1.97,4.92,3.1.19.13.37.27.55.41,1.04.75-1.17-.93-.47-.36.36.29.71.57,1.06.87.83.7,1.64,1.43,2.42,2.19,1.39,1.36,2.61,2.84,3.87,4.32-1.54-1.81-.29-.36.03.08.3.41.59.83.87,1.26.57.85,1.11,1.72,1.62,2.6.97,1.68,1.77,3.42,2.6,5.17-1.05-2.2-.15-.33.07.22s.4,1.07.58,1.6c.37,1.08.71,2.17,1.01,3.27.6,2.2,1.04,4.44,1.35,6.7l-.25-1.86c.59,4.53.61,9.1.02,13.63l.25-1.86c-.41,2.98-1.07,5.93-2.02,8.79-.23.7-.48,1.4-.75,2.08-.12.32-.26.63-.38.95.84-2.16.32-.76.1-.27-.64,1.4-1.35,2.77-2.12,4.1-1.84,3.17-.84,7.81,2.51,9.58,3.35,1.77,7.62.87,9.58-2.51h0Z"/>
    </g>
    <path class="cls-3" d="M255.34,119.19c12.1-18.89,10.37-44.46-3.08-62.22s-37.48-27.45-59.8-24.03c-9.76,1.49-20.21,7.23-20.48,18.3-.25,10.21,9.57,17.93,19.19,12.82,10.4-5.52,10.13-18.5,5.91-27.95-4.37-9.79-12.97-17.1-22.94-20.78-23.5-8.68-49.06,7.78-53.74,31.78l9.64,2.66C135.13,14.89,97.64-3.02,67.87.42,33.5,4.38,4.26,30.27.45,65.24c-2.03,18.62,2.87,37.6,11.68,53.95,3.05,5.67,11.69.62,8.63-5.05-13.02-24.15-16.17-56.18,1.93-78.71C39.67,14.31,69.86,4.36,95.7,13.31c14.31,4.95,27.07,17.5,24.69,33.79-.91,6.21,8.39,9.08,9.64,2.66,2.81-14.42,15.21-26.87,30.44-26.88,13.36,0,31.35,11.67,29.39,26.93-.34,2.62-3.81,8.34-6.98,5.06-1.95-2.01-.72-5.89.82-7.65,5.03-5.73,15.98-5.36,22.86-4.76,15.28,1.34,30.6,9.55,39.14,22.46,9.75,14.73,10.59,34.24,1,49.21-3.48,5.43,5.17,10.45,8.63,5.05h0Z"/>
  </g>
</svg>